<?xml version="1.0" encoding="UTF-8" standalone="no"?>
<!-- Created with Inkscape (http://www.inkscape.org/) -->

<svg
   xmlns:dc="http://purl.org/dc/elements/1.1/"
   xmlns:cc="http://creativecommons.org/ns#"
   xmlns:rdf="http://www.w3.org/1999/02/22-rdf-syntax-ns#"
   xmlns:svg="http://www.w3.org/2000/svg"
   xmlns="http://www.w3.org/2000/svg"
   xmlns:sodipodi="http://sodipodi.sourceforge.net/DTD/sodipodi-0.dtd"
   xmlns:inkscape="http://www.inkscape.org/namespaces/inkscape"
   version="1.1"
   width="640"
   height="640"
   id="svg2"
   xml:space="preserve"
   inkscape:version="0.48.3.1 r9886"
   sodipodi:docname="DavSync 12 512x512.svg"
   inkscape:export-filename="/tmp/davsync_72.png"
   inkscape:export-xdpi="10.125"
   inkscape:export-ydpi="10.125"><sodipodi:namedview
     pagecolor="#ffffff"
     bordercolor="#666666"
     borderopacity="1"
     objecttolerance="10"
     gridtolerance="10"
     guidetolerance="10"
     inkscape:pageopacity="0"
     inkscape:pageshadow="2"
     inkscape:window-width="1276"
     inkscape:window-height="1329"
     id="namedview125"
     showgrid="false"
     inkscape:zoom="1.0429825"
     inkscape:cx="322.50161"
     inkscape:cy="268.37053"
     inkscape:window-x="0"
     inkscape:window-y="90"
     inkscape:window-maximized="0"
     inkscape:current-layer="svg2" /><metadata
     id="metadata8"><rdf:RDF><cc:Work
         rdf:about=""><dc:format>image/svg+xml</dc:format><dc:type
           rdf:resource="http://purl.org/dc/dcmitype/StillImage" /><dc:title></dc:title></cc:Work></rdf:RDF></metadata><defs
     id="defs6"><clipPath
       id="clipPath18"><path
         d="M 0,512 512,512 512,0 0,0 0,512 z"
         id="path20" /></clipPath><clipPath
       id="clipPath24"><path
         d="M 0,0 512,0 512,512 0,512 0,0 z"
         id="path26" /></clipPath><clipPath
       id="clipPath30"><path
         d="M 25,0 490,0 490,510 25,510 25,0 z"
         id="path32" /></clipPath><clipPath
       id="clipPath34"><path
         d="m 25.0703,0 464.8557,0 0,509.004 -464.8557,0 0,-509.004 z"
         id="path36" /></clipPath><clipPath
       id="clipPath54"><path
         d="m 26.074,512 c -2.2,0 -4,-1.8 -4,-4 l 0,0 0,-501.004 c 0,-2.2 1.8,-4 4,-4 l 0,0 456.856,0 c 2.2,0 4,1.8 4,4 l 0,0 0,501.004 c 0,2.2 -1.8,4 -4,4 l 0,0 -456.856,0 z m 26.713,-394.284 0,360.506 c 0,2.201 1.8,4.001 4,4.001 l 0,0 397.169,0 c 2.199,0 3.999,-1.8 3.999,-4.001 l 0,0 0,-360.506 c 0,-2.199 -1.8,-3.999 -3.999,-3.999 l 0,0 -397.169,0 c -2.2,0 -4,1.8 -4,3.999"
         id="path56" /></clipPath><radialGradient
       cx="0"
       cy="0"
       r="1"
       fx="0"
       fy="0"
       id="radialGradient66"
       gradientUnits="userSpaceOnUse"
       gradientTransform="matrix(267.9269,-97.51742,-87.76568,-241.1342,245.5151,291.1997)"
       spreadMethod="pad"><stop
         id="stop68"
         style="stop-color:#ffffff;stop-opacity:1"
         offset="0" /><stop
         id="stop70"
         style="stop-color:#e7e8e9;stop-opacity:1"
         offset="1" /></radialGradient><clipPath
       id="clipPath78"><path
         d="M 0,512 512,512 512,0 0,0 0,512 z"
         id="path80" /></clipPath><clipPath
       id="clipPath84"><path
         d="M 0,0 512,0 512,512 0,512 0,0 z"
         id="path86" /></clipPath><clipPath
       id="clipPath96"><path
         d="m 56.787,482.223 c -2.2,0 -4,-1.8 -4,-4.001 l 0,0 0,-360.506 c 0,-2.199 1.8,-3.999 4,-3.999 l 0,0 397.169,0 c 2.199,0 3.999,1.8 3.999,3.999 l 0,0 0,360.506 c 0,2.201 -1.8,4.001 -3.999,4.001 l 0,0 -397.169,0 z"
         id="path98" /></clipPath><clipPath
       id="clipPath102"><path
         d="M 0,0 512,0 512,512 0,512 0,0 z"
         id="path104" /></clipPath><clipPath
       id="clipPath186"><path
         d="M 0,512 512,512 512,0 0,0 0,512 z"
         id="path188" /></clipPath><clipPath
       id="clipPath192"><path
         d="M 0,0 512,0 512,512 0,512 0,0 z"
         id="path194" /></clipPath><clipPath
       id="clipPath214"><path
         d="M 0,512 512,512 512,0 0,0 0,512 z"
         id="path216" /></clipPath><clipPath
       id="clipPath220"><path
         d="M 0,0 512,0 512,512 0,512 0,0 z"
         id="path222" /></clipPath></defs><g
     id="g12"
     transform="matrix(1.25,0,0,-1.25,0,640)" /><g
     id="g210"
     transform="matrix(1.8812351,0,0,-1.8812351,-156.14109,876.03246)"><g
       id="g212"
       clip-path="url(#clipPath214)"><g
         id="g218"
         clip-path="url(#clipPath220)"><path
           inkscape:connector-curvature="0"
           style="fill:#c25b1d;fill-opacity:1;fill-rule:nonzero;stroke:none"
           id="path224"
           d="m 113.2192,208.1035 c 8.466,27.193 29.324,47.049 46.636,54.387 -1.467,-9.485 -2.719,-21.688 -3.697,-31.201 l 34.327,-32.016 c 9.975,1.059 20.005,1.658 30.032,2.039 -5.326,-11.686 -13.507,-21.988 -23.917,-29.545 -10.589,-7.287 -22.468,-16.336 -32.493,-16.998 l -50.888,53.334 z" /><path
           inkscape:connector-curvature="0"
           style="fill:#ebac35;fill-opacity:1;fill-rule:nonzero;stroke:none"
           id="path226"
           d="m 189.1538,197.752 c 2.881,1.793 -35.768,31.582 -32.995,33.537 l -0.081,2.719 c -0.326,2.527 -0.951,7.611 -1.278,10.137 -18.847,-8.299 -24.71,-10.776 -34.175,-24.498 -0.353,-0.512 -1.543,-1.495 -2.312,-2.541 -1.755,-2.391 -4.903,-7.954 -6.264,-12.397 -6.279,-19.678 -10.302,-40.197 -10.248,-60.908 16.933,0.055 33.865,2.502 50.146,7.176 9.321,2.773 19.079,5.273 26.688,11.66 13.718,10.314 16.186,16.695 25.228,33.025 -4.349,0.76 -10.334,1.356 -14.709,2.09" /><path
           inkscape:connector-curvature="0"
           style="fill:#faeb47;fill-opacity:1;fill-rule:nonzero;stroke:none"
           id="path228"
           d="m 125.5566,210.418 c 4.186,8.75 13.914,11.605 22.068,15.273 -13.888,-11.388 32.424,-38.755 35.686,-35.414 -3.099,-7.88 -5.381,-17.205 -13.454,-21.552 -14.349,-8.344 -30.929,-13.563 -47.589,-13.889 -4.647,-0.543 -9.893,2.228 -9.432,7.529 -0.598,16.77 5.11,33.321 12.721,48.053" /><path
           inkscape:connector-curvature="0"
           style="fill:#7d1300;fill-opacity:1;fill-rule:nonzero;stroke:none"
           id="path230"
           d="m 205.5962,357.1816 c -6.142,0.135 -12.284,0.135 -18.426,0.107 -10.465,-0.053 -20.983,0.816 -31.392,-0.434 -24.407,-22.531 -47.154,-46.91 -70.854,-70.202 17.53,-1.033 35.168,0.76 52.617,-0.897 4.431,-3.424 8.154,-7.61 12.067,-11.577 3.452,-3.452 6.958,-6.795 10.628,-10.029" /><path
           inkscape:connector-curvature="0"
           style="fill:#7d1300;fill-opacity:1;fill-rule:nonzero;stroke:none"
           id="path232"
           d="m 220.9517,202.8887 1.387,-1.496 c 3.126,-3.342 6.468,-6.467 9.811,-9.594 3.913,-3.939 8.208,-7.664 11.333,-12.312 1.496,-17.53 -0.162,-35.223 0.817,-52.834 5.407,5.218 10.626,10.654 16.224,15.681 3.074,3.371 6.224,6.713 8.861,10.41 15.818,14.215 31.119,29.217 45.252,45.008 1.115,11.606 0.273,23.291 0.463,34.897 0,4.974 0,9.92 -0.082,14.867" /><path
           inkscape:connector-curvature="0"
           style="fill:#5b1406;fill-opacity:1;fill-rule:nonzero;stroke:none"
           id="path234"
           d="m 160.2358,264.1494 c -3.67,3.234 -7.176,6.577 -10.628,10.029 11.634,16.333 18.184,35.413 27.505,52.998 5.057,9.404 8.073,19.677 10.057,30.113 6.142,0.027 12.285,0.027 18.426,-0.108" /><path
           inkscape:connector-curvature="0"
           style="fill:#5a1306;fill-opacity:1;fill-rule:nonzero;stroke:none"
           id="path236"
           d="m 315.0176,247.5156 c 0.082,-4.947 0.082,-9.893 0.082,-14.867 -8.969,-3.613 -17.855,-7.447 -26.525,-11.768 -18.836,-9.676 -39.192,-16.523 -56.425,-29.082 -3.343,3.127 -6.685,6.252 -9.811,9.594 l -1.387,1.496" /><path
           inkscape:connector-curvature="0"
           style="fill:#565559;fill-opacity:1;fill-rule:nonzero;stroke:none"
           id="path238"
           d="m 190.4849,199.2734 c 9.976,1.059 20.005,1.658 30.033,2.039 l 1.821,0.08 -1.387,1.496 c 34.111,8.155 65.773,24.108 94.066,44.627 41.965,31.554 69.66,79.09 85.015,128.554 11.524,27.996 16.987,58.081 21.907,87.842 -20.44,-3.262 -39.834,-6.458 -61.413,-12.491 -4.734,-1.089 -8.628,-2.811 -13.193,-4.17 -53.814,-16.932 -107.248,-43.948 -141.738,-90.069 -20.601,-27.994 -35.875,-59.629 -45.36,-93.032 l -0.381,-1.659 c -1.467,-9.485 -2.8,-18.971 -3.777,-28.483 l 0.081,-2.718" /><path
           inkscape:connector-curvature="0"
           style="fill:#cacad4;fill-opacity:1;fill-rule:nonzero;stroke:none"
           id="path240"
           d="m 359.0195,444.0444 c -86.375,-23.25 -159.811,-88.929 -188.782,-173.047 -3.48,-10.436 -4.511,-21.472 -4.839,-32.423 3.453,2.851 6.85,5.734 10.301,8.588 7.746,6.334 15.492,12.638 23.185,19.025 13.153,10.735 25.819,22.096 39.136,32.641 6.605,5.843 15.9,4.865 24.026,5.817 l -0.244,-2.827 c -0.299,-5.871 -0.408,-11.741 -0.734,-17.612 -0.217,-3.343 -0.408,-6.685 -0.625,-10.028 -16.471,-16.553 -31.365,-35.278 -38.567,-57.837 17.068,-1.195 32.762,5.172 47.672,13.807 8.158,3.957 15.135,10.086 22.637,15.223 31.418,19.351 55.951,47.727 75.207,78.896 18.609,30.125 31.809,49.181 39.652,96.701 1.731,10.486 2.936,20.955 3.586,31.501 -17.447,-0.842 -34.515,-4.166 -51.611,-8.425" /><path
           inkscape:connector-curvature="0"
           style="fill:#dfdfe8;fill-opacity:1;fill-rule:nonzero;stroke:none"
           id="path242"
           d="m 266.3691,387.0503 c 38.293,25.819 79.307,49.438 124.668,60.093 2.228,-0.056 6.713,-0.137 8.941,-0.165 -11.224,-28.482 -26.634,-56.803 -52.074,-74.957 -6.469,10.871 -61.914,-37.317 -53.16,-44.9 -6.307,-2.038 -12.611,-5.761 -19.379,-5.191 -8.426,3.016 -15.519,8.888 -24.054,11.633 -10.491,3.398 -21.553,4.43 -32.398,6.251 13.89,17.557 30.441,32.723 47.456,47.236" /><path
           inkscape:connector-curvature="0"
           style="fill:#303030;fill-opacity:1;fill-rule:nonzero;stroke:none"
           id="path244"
           d="m 279.7129,357.3711 c -0.869,20.003 18.482,37.018 38.051,35.224 13.045,-0.87 23.672,-9.703 30.14,-20.574 2.5,-7.909 3.424,-16.281 2.039,-24.489 -5.816,-16.144 -21.363,-27.096 -38.648,-26.254 -5.652,1.549 -11.197,3.452 -16.551,5.843 -8.754,7.583 -15.765,18.209 -15.031,30.25" /><path
           inkscape:connector-curvature="0"
           style="fill:#565656;fill-opacity:1;fill-rule:nonzero;stroke:none"
           id="path246"
           d="m 337.957,377.0757 c -13.752,15.464 -41.176,8.534 -49.438,-9.377 -3.055,-6.623 -2.671,-12.337 -0.983,-19.31 0.758,-3.132 1.36,-6.333 3.112,-9.099 1.92,-3.027 3.396,-6.36 6.405,-8.553 8.138,-5.955 26.961,-5.078 36.31,2.695 12.938,9.595 13.612,31.107 4.594,43.644" /><path
           inkscape:connector-curvature="0"
           style="fill:#6a6a6a;fill-opacity:1;fill-rule:nonzero;stroke:none"
           id="path248"
           d="m 307.5449,376.0977 c -3.059,-1.167 -5.857,-3.01 -8.061,-5.423 -3.761,-4.118 -6.111,-9.594 -7.507,-14.946 -1.328,-5.087 -1.953,-9.778 -0.055,-14.808 1.289,-3.415 2.793,-7.324 5.131,-10.184 2.908,1.984 5.816,3.941 8.697,6.007 10.762,7.446 19.705,17.095 27.613,27.449 2.094,2.664 4.133,5.326 6.198,7.991 -9.786,4.947 -21.471,10.138 -32.016,3.914" /><path
           inkscape:connector-curvature="0"
           style="fill:#dc2f11;fill-opacity:1;fill-rule:nonzero;stroke:none"
           id="path250"
           d="m 238.021,298.8286 c 6.604,5.843 15.899,4.865 24.026,5.816 l -0.244,-2.826 c -31.42,-29.136 -60.854,-60.254 -91.457,-90.235 -10.491,-10.136 -20.139,-21.062 -30.196,-31.634 l -2.527,-0.137 c 0.734,15.629 -3.887,34.49 10.002,45.879 2.88,1.793 5.761,3.642 8.534,5.597 3.179,2.338 6.224,4.786 9.24,7.286 3.452,2.851 6.849,5.734 10.301,8.587 7.746,6.334 15.492,12.639 23.184,19.026 13.154,10.735 25.82,22.096 39.137,32.641" /><path
           inkscape:connector-curvature="0"
           style="fill:#5a1306;fill-opacity:1;fill-rule:nonzero;stroke:none"
           id="path252"
           d="m 170.3462,211.584 c -10.491,-10.137 -20.139,-21.062 -30.196,-31.635 4.784,0.028 9.567,-0.107 14.351,-0.217 6.142,0.11 12.503,-0.625 18.509,1.086 3.831,2.692 7.039,6.118 10.3,9.459 1.902,2.528 3.832,5.03 5.844,7.475 l 1.331,1.521 c 7.692,9.27 14.839,18.971 22.585,28.186 13.318,14.539 25.25,30.249 37.208,45.903 3.614,3.615 7.204,7.23 10.79,10.845 0.326,5.871 0.436,11.74 0.735,17.611 -31.42,-29.135 -60.854,-60.254 -91.457,-90.234" /></g></g></g></svg>